<svg xmlns="http://www.w3.org/2000/svg" viewBox="0 0 920 260" role="img" aria-labelledby="title desc" shape-rendering="geometricPrecision" text-rendering="geometricPrecision">
  <title id="title">StoryPlay Empreendedor</title>
  <desc id="desc">Logo educacional colorida com símbolo de play, crescimento e empreendedorismo.</desc>
  <defs>
    <linearGradient id="gBlue" x1="0" x2="1"><stop stop-color="#0D47A1"/><stop offset="1" stop-color="#00B8D9"/></linearGradient>
    <linearGradient id="gOrange" x1="0" x2="1"><stop stop-color="#FF7A00"/><stop offset="1" stop-color="#FFC107"/></linearGradient>
    <linearGradient id="gGreen" x1="0" x2="1"><stop stop-color="#0D47A1"/><stop offset="1" stop-color="#22C55E"/></linearGradient>
    <filter id="shadow" x="-20%" y="-20%" width="140%" height="140%"><feDropShadow dx="0" dy="7" stdDeviation="7" flood-opacity=".18"/></filter>
  </defs>
  <g filter="url(#shadow)">
    <rect x="18" y="24" width="210" height="210" rx="56" fill="url(#gBlue)"/>
    <path d="M80 72v114l100-57z" fill="#fff"/>
    <rect x="100" y="139" width="17" height="30" rx="7" fill="#FFC107"/>
    <rect x="126" y="125" width="17" height="44" rx="7" fill="#22C55E"/>
    <rect x="152" y="108" width="17" height="61" rx="7" fill="#1677ff"/>
    <path d="M102 116c22-3 45-15 67-37" fill="none" stroke="#FF7A00" stroke-width="10" stroke-linecap="round"/>
    <path d="M164 75l17-3-5 17" fill="none" stroke="#FF7A00" stroke-width="10" stroke-linecap="round" stroke-linejoin="round"/>
    <circle cx="185" cy="58" r="18" fill="#FFC107"/>
    <path d="M185 30v10M185 76v10M157 58h10M203 58h10" stroke="#FFC107" stroke-width="6" stroke-linecap="round"/>
  </g>
  <text x="264" y="102" font-family="Inter,Segoe UI,sans-serif" font-weight="900" font-size="78" fill="#0D47A1">Story</text>
  <text x="465" y="102" font-family="Inter,Segoe UI,sans-serif" font-weight="900" font-size="78" fill="#FF7A00">Play</text>
  <g transform="translate(646 44)" shape-rendering="geometricPrecision">
    <path d="M0 0L23 10L5 28Z" fill="#FFC107"/>
    <path d="M28 2L49 14L27 27Z" fill="#22C55E"/>
    <path d="M52 8L71 23L49 29Z" fill="#7C3AED"/>
  </g>
  <rect x="264" y="124" width="570" height="70" rx="30" fill="url(#gGreen)"/>
  <text x="290" y="173" font-family="Inter,Segoe UI,sans-serif" font-weight="900" font-size="47" fill="#fff">Empreendedor</text>
  <g transform="translate(752 143)" stroke="#fff" stroke-width="7" stroke-linecap="round"><path d="M0 28V16M18 28V9M36 28V2"/><path d="M-4 5c16-5 31-12 44-28" fill="none" stroke="#FFC107"/><path d="M35-25l10 0-2 10" fill="none" stroke="#FFC107"/></g>
  <rect x="372" y="204" width="360" height="42" rx="21" fill="url(#gOrange)"/>
  <text x="414" y="233" font-family="Inter,Segoe UI,sans-serif" font-weight="800" font-size="24" letter-spacing="2" fill="#0B2B5D">ABRA SUA EMPRESA</text>
</svg>
